<svg width="32" height="32" viewBox="0 0 32 32" fill="none" xmlns="http://www.w3.org/2000/svg">
<circle cx="16" cy="16" r="16" fill="#454F5B"/>
<path d="M8 25H17.62C18.1971 25.0003 18.7674 24.8756 19.2916 24.6345C19.8159 24.3933 20.2817 24.0414 20.657 23.603L25.759 17.651C25.8658 17.5266 25.9404 17.3778 25.9762 17.2178C26.012 17.0577 26.0079 16.8914 25.9642 16.7333C25.9206 16.5752 25.8387 16.4303 25.7258 16.3113C25.6129 16.1923 25.4726 16.103 25.317 16.051L23.349 15.395C22.8734 15.2404 22.3669 15.2054 21.8745 15.2932C21.3821 15.3809 20.919 15.5886 20.526 15.898L17.341 18.445L16.724 17.21C16.3935 16.5443 15.8831 15.9844 15.2507 15.5938C14.6184 15.2033 13.8893 14.9976 13.146 15H8C6.897 15 6 15.897 6 17V23C6 24.103 6.897 25 8 25ZM8 17H13.146C13.909 17 14.594 17.423 14.935 18.105L15.382 19H11V21H17.014C17.1679 20.998 17.3191 20.9603 17.456 20.89L17.459 20.889L17.463 20.887H17.466L17.468 20.886H17.472L17.473 20.885C17.482 20.888 17.476 20.884 17.476 20.884C17.486 20.884 17.478 20.883 17.478 20.883H17.479L17.481 20.882L17.484 20.881L17.486 20.88L17.488 20.879L17.491 20.878L17.493 20.877C17.496 20.877 17.495 20.876 17.495 20.876L17.498 20.874L17.5 20.873L17.502 20.872L17.505 20.871L17.507 20.87H17.508L17.51 20.869L17.513 20.868L17.515 20.867C17.524 20.866 17.518 20.866 17.518 20.866L17.52 20.865C17.5585 20.8418 17.5953 20.8157 17.63 20.787L21.776 17.47C22.038 17.262 22.399 17.197 22.716 17.303L23.273 17.489L19.14 22.312C18.9499 22.5279 18.716 22.7009 18.454 22.8195C18.1919 22.9381 17.9077 22.9996 17.62 23H8V17Z" fill="white"/>
<path fill-rule="evenodd" clip-rule="evenodd" d="M15.1464 5.94045C16.0047 5.36691 17.0139 5.06079 18.0462 5.06079C18.7317 5.06079 19.4104 5.1958 20.0437 5.45811C20.6769 5.72041 21.2523 6.10488 21.737 6.58957C22.2217 7.07425 22.6062 7.64965 22.8685 8.28291C23.1308 8.91618 23.2658 9.59491 23.2658 10.2804C23.2658 11.3127 22.9597 12.3218 22.3861 13.1802C21.8126 14.0385 20.9974 14.7075 20.0437 15.1026C19.0899 15.4977 18.0404 15.601 17.0279 15.3996C16.0154 15.1982 15.0854 14.7011 14.3554 13.9711C13.6255 13.2412 13.1284 12.3111 12.927 11.2986C12.7256 10.2861 12.8289 9.23666 13.224 8.28291C13.619 7.32916 14.288 6.51398 15.1464 5.94045ZM19.228 6.27541C18.5817 6.08473 17.8967 6.05265 17.2316 6.18494C16.4216 6.34606 15.6776 6.74375 15.0936 7.32773C14.5826 7.8387 14.2143 8.47222 14.0222 9.16525C14.2143 8.47222 14.5826 7.8387 15.0936 7.32772C15.6776 6.74375 16.4216 6.34606 17.2316 6.18494C17.8967 6.05264 18.5817 6.08473 19.228 6.27541ZM13.9508 9.46572C13.9307 9.56697 13.9143 9.66869 13.9018 9.77065C13.9143 9.66869 13.9307 9.56698 13.9508 9.46573M18.0462 13.956C17.3193 13.956 16.6086 13.7404 16.0041 13.3365C15.3997 12.9327 14.9286 12.3586 14.6504 11.687C14.3722 11.0153 14.2994 10.2763 14.4412 9.56327C14.583 8.85027 14.9331 8.19533 15.4471 7.68128C15.9612 7.16723 16.6161 6.81716 17.3291 6.67533C18.0421 6.53351 18.7812 6.6063 19.4528 6.8845C20.1245 7.1627 20.6985 7.63382 21.1024 8.23828C21.5063 8.84273 21.7219 9.55338 21.7219 10.2804C21.7219 11.2552 21.3346 12.1901 20.6453 12.8794C19.956 13.5688 19.0211 13.956 18.0462 13.956Z" fill="white"/>
<path d="M18.0463 9.75846C17.0024 9.75846 17.0024 9.42963 17.0024 9.23651C17.0024 9.04338 17.3678 8.71455 18.0463 8.71455C18.7249 8.71455 18.7718 9.0486 18.7771 9.23651H19.821C19.8139 8.88093 19.686 8.53834 19.4583 8.26512C19.2307 7.9919 18.9168 7.80433 18.5683 7.73327V7.14868H17.5244V7.71761C16.4805 7.88986 15.9585 8.56318 15.9585 9.23651C15.9585 9.8211 16.2299 10.8024 18.0463 10.8024C19.0902 10.8024 19.0902 11.1573 19.0902 11.3243C19.0902 11.4914 18.7666 11.8463 18.0463 11.8463C17.0859 11.8463 17.0024 11.3974 17.0024 11.3243H15.9585C15.9585 11.8045 16.303 12.6553 17.5244 12.8484V13.4122H18.5683V12.8484C19.6122 12.671 20.1341 11.9977 20.1341 11.3243C20.1341 10.7397 19.8627 9.75846 18.0463 9.75846Z" fill="white"/>
</svg>
