<svg width="32" height="32" viewBox="0 0 32 32" fill="none" xmlns="http://www.w3.org/2000/svg">
<circle cx="16" cy="16" r="16" fill="#F9577E"/>
<path d="M7 12.9914C7 12.4314 7 11.91 7 11.3587C11.933 11.3587 16.85 11.3587 21.8008 11.3587C21.8008 10.5424 21.8008 9.75424 21.8008 9C22.8741 10.0767 23.9474 11.1529 25 12.209C23.9853 13.2259 22.9138 14.2998 21.8232 15.3926C21.8232 14.6033 21.8232 13.8158 21.8232 12.9914C16.8643 12.9914 11.9394 12.9914 7 12.9914Z" fill="white"/>
<path d="M25 20.8664C25 20.3064 25 19.785 25 19.2337C20.067 19.2337 15.15 19.2337 10.1992 19.2337C10.1992 18.4174 10.1992 17.6292 10.1992 16.875C9.1259 17.9517 8.0526 19.0279 7 20.084C8.01466 21.1009 9.08623 22.1748 10.1768 23.2676C10.1768 22.4783 10.1768 21.6908 10.1768 20.8664C15.1357 20.8664 20.0606 20.8664 25 20.8664Z" fill="white"/>
</svg>
