<svg width="40" height="40" viewBox="0 0 40 40" fill="none" xmlns="http://www.w3.org/2000/svg">
<circle cx="20" cy="20" r="20" fill="#BE1128"/>
<path d="M26.5625 18.125V25.625C26.5625 26.6562 25.7188 27.5 24.6875 27.5H11.5625C10.5312 27.5 9.6875 26.6562 9.6875 25.625V18.125C9.6875 17.0938 10.5312 16.25 11.5625 16.25H24.6875C25.7188 16.25 26.5625 17.0938 26.5625 18.125ZM24.6875 18.125H11.5625V25.625H24.6875V18.125ZM18.125 24.6875C16.5687 24.6875 15.3125 23.4313 15.3125 21.875C15.3125 20.3187 16.5687 19.0625 18.125 19.0625C19.6812 19.0625 20.9375 20.3187 20.9375 21.875C20.9375 23.4313 19.6812 24.6875 18.125 24.6875ZM30.3125 24.6875V14.375C30.3125 13.3438 29.4688 12.5 28.4375 12.5H12.5C12.5 13.4375 12.5 13.3438 12.5 14.375H28.4375V24.6875C29.4688 24.6875 29.375 24.6875 30.3125 24.6875Z" fill="white"/>
</svg>
