<svg width="32" height="32" viewBox="0 0 32 32" fill="none" xmlns="http://www.w3.org/2000/svg">
<circle cx="16" cy="16" r="16" fill="#FFC20E"/>
<path d="M16.0003 24.3337C19.2162 24.3337 21.8337 21.7162 21.8337 18.5003C21.8337 15.2845 19.2162 12.667 16.0003 12.667C12.7837 12.667 10.167 15.2845 10.167 18.5003C10.167 21.7162 12.7837 24.3337 16.0003 24.3337ZM16.0003 14.3337C18.2978 14.3337 20.167 16.2028 20.167 18.5003C20.167 20.7978 18.2978 22.667 16.0003 22.667C13.7028 22.667 11.8337 20.7978 11.8337 18.5003C11.8337 16.2028 13.7028 14.3337 16.0003 14.3337ZM15.167 7.66699H11.8337V12.2653C12.8078 11.6137 13.9428 11.1853 15.167 11.0495V7.66699ZM20.167 7.66699H16.8337V11.0495C18.0578 11.1853 19.1928 11.6137 20.167 12.2653V7.66699Z" fill="white"/>
<path d="M14.3489 19.1762L13.9589 21.4478L15.9998 20.3753L18.0406 21.4478L17.6506 19.1762L19.3023 17.5662L17.0206 17.2345L15.9998 15.167L14.9789 17.2345L12.6973 17.5662L14.3489 19.1762Z" fill="white"/>
</svg>
