<svg width="41" height="40" viewBox="0 0 41 40" fill="none" xmlns="http://www.w3.org/2000/svg">
<rect x="0.5" width="40" height="40" rx="20" fill="#6783B9"/>
<path fill-rule="evenodd" clip-rule="evenodd" d="M25.2267 11H16.7733C15.7432 11 15.2282 11 14.8128 11.1445C14.0251 11.4186 13.4066 12.0553 13.1404 12.8662C13 13.2938 13 13.824 13 14.8845V27.3326C13 28.0955 13.8756 28.5003 14.4294 27.9934C14.7548 27.6957 15.2452 27.6957 15.5706 27.9934L16 28.3864C16.5703 28.9082 17.4297 28.9082 18 28.3864C18.5703 27.8645 19.4297 27.8645 20 28.3864C20.5703 28.9082 21.4297 28.9082 22 28.3864C22.5703 27.8645 23.4297 27.8645 24 28.3864C24.5703 28.9082 25.4297 28.9082 26 28.3864L26.4294 27.9934C26.7548 27.6957 27.2452 27.6957 27.5706 27.9934C28.1244 28.5003 29 28.0955 29 27.3326V14.8845C29 13.824 29 13.2938 28.8596 12.8662C28.5934 12.0553 27.9749 11.4186 27.1872 11.1445C26.7718 11 26.2568 11 25.2267 11ZM21.6465 14.6492C21.6465 14.1066 21.1581 13.6667 20.5556 13.6667C19.9531 13.6667 19.4647 14.1066 19.4647 14.6492V14.6626C17.881 15.0219 16.5556 16.1464 16.5556 17.7057C16.5556 19.6142 18.5412 20.8714 20.5556 20.8714C21.7544 20.8714 22.3738 21.5691 22.3738 22.0722C22.3738 22.5752 21.7544 23.2729 20.5556 23.2729C19.3568 23.2729 18.7374 22.5752 18.7374 22.0722C18.7374 21.5296 18.249 21.0897 17.6465 21.0897C17.044 21.0897 16.5556 21.5296 16.5556 22.0722C16.5556 23.6314 17.881 24.756 19.4647 25.1153V25.1287C19.4647 25.6713 19.9531 26.1111 20.5556 26.1111C21.1581 26.1111 21.6465 25.6713 21.6465 25.1287V25.1153C23.2302 24.756 24.5556 23.6314 24.5556 22.0722C24.5556 20.1637 22.5701 18.9065 20.5556 18.9065C19.3568 18.9065 18.7374 18.2088 18.7374 17.7057C18.7374 17.2026 19.3568 16.5049 20.5556 16.5049C21.7544 16.5049 22.3738 17.2026 22.3738 17.7057C22.3738 18.2483 22.8622 18.6881 23.4647 18.6881C24.0672 18.6881 24.5556 18.2483 24.5556 17.7057C24.5556 16.1464 23.2302 15.0219 21.6465 14.6626V14.6492Z" fill="white"/>
</svg>
