<svg width="32" height="32" viewBox="0 0 32 32" fill="none" xmlns="http://www.w3.org/2000/svg">
<circle cx="16" cy="16" r="16" fill="#64BDCD"/>
<path d="M24 7H8C6.897 7 6 7.897 6 9V23C6 24.103 6.897 25 8 25H24C25.103 25 26 24.103 26 23V9C26 7.897 25.103 7 24 7ZM8 23V11H24L24.001 23H8Z" fill="white"/>
<path d="M16 16.3333C14.5 16.3333 14.5 15.9133 14.5 15.6667C14.5 15.42 15.025 15 16 15C16.975 15 17.0425 15.4267 17.05 15.6667H18.55C18.5399 15.2125 18.3561 14.7749 18.0289 14.426C17.7018 14.077 17.2507 13.8374 16.75 13.7467V13H15.25V13.7267C13.75 13.9467 13 14.8067 13 15.6667C13 16.4133 13.39 17.6667 16 17.6667C17.5 17.6667 17.5 18.12 17.5 18.3333C17.5 18.5467 17.035 19 16 19C14.62 19 14.5 18.4267 14.5 18.3333H13C13 18.9467 13.495 20.0333 15.25 20.28V21H16.75V20.28C18.25 20.0533 19 19.1933 19 18.3333C19 17.5867 18.61 16.3333 16 16.3333Z" fill="white"/>
</svg>
