<svg width="32" height="32" viewBox="0 0 32 32" fill="none" xmlns="http://www.w3.org/2000/svg">
<ellipse cx="16.0001" cy="16" rx="15.8545" ry="16" fill="#98C616"/>
<path d="M21.2024 14.5V12.25C21.2024 11.4227 20.5358 10.75 19.7161 10.75H17.4865C17.4865 9.5095 16.4862 8.5 15.257 8.5C14.0278 8.5 13.0274 9.5095 13.0274 10.75H10.7979C9.97816 10.75 9.31152 11.4227 9.31152 12.25V15.1607L9.80128 15.34C10.3973 15.5575 10.7979 16.1245 10.7979 16.75C10.7979 17.3755 10.3973 17.9425 9.80128 18.16L9.31152 18.3393V21.25C9.31152 22.0773 9.97816 22.75 10.7979 22.75H13.6822L13.8598 22.2557C14.0753 21.6543 14.6372 21.25 15.257 21.25C15.8768 21.25 16.4386 21.6543 16.6542 22.2557L16.8318 22.75H19.7161C20.5358 22.75 21.2024 22.0773 21.2024 21.25V19C22.4317 19 23.432 17.9905 23.432 16.75C23.432 15.5095 22.4317 14.5 21.2024 14.5ZM21.2024 17.5H19.7161L19.7138 21.25H17.8224C17.294 20.335 16.3197 19.75 15.257 19.75C14.1942 19.75 13.2199 20.335 12.6915 21.25H10.7979V19.339C11.7046 18.8057 12.2843 17.8225 12.2843 16.75C12.2843 15.6775 11.7046 14.6943 10.7979 14.161V12.25H14.5138V10.75C14.5138 10.5511 14.5921 10.3603 14.7315 10.2197C14.8708 10.079 15.0599 10 15.257 10C15.4541 10 15.6431 10.079 15.7825 10.2197C15.9219 10.3603 16.0002 10.5511 16.0002 10.75V12.25H19.7161V16H21.2024C21.3995 16 21.5886 16.079 21.7279 16.2197C21.8673 16.3603 21.9456 16.5511 21.9456 16.75C21.9456 16.9489 21.8673 17.1397 21.7279 17.2803C21.5886 17.421 21.3995 17.5 21.2024 17.5Z" fill="white"/>
</svg>
