<svg width="41" height="40" viewBox="0 0 41 40" fill="none" xmlns="http://www.w3.org/2000/svg">
<rect x="0.5" width="40" height="40" rx="20" fill="#1890FF"/>
<path fill-rule="evenodd" clip-rule="evenodd" d="M25.0249 10H25.0932C25.977 9.99999 26.6897 9.99999 27.2635 10.0545C27.8552 10.1108 28.3707 10.23 28.8343 10.514C29.3037 10.8017 29.6983 11.1963 29.986 11.6657C30.27 12.1293 30.3892 12.6448 30.4455 13.2365C30.5 13.8103 30.5 14.523 30.5 15.4068V15.4752C30.5 16.0559 30.5 16.5405 30.4626 16.9341C30.4235 17.3456 30.3386 17.7291 30.123 18.0808C29.9121 18.425 29.6227 18.7144 29.2785 18.9254C28.9267 19.1409 28.5433 19.2258 28.1318 19.2649C27.7382 19.3024 27.2535 19.3023 26.6728 19.3023L25.5679 19.3023C24.7321 19.3024 24.0352 19.3024 23.4819 19.228C22.8979 19.1495 22.3706 18.9768 21.9469 18.5531C21.5232 18.1294 21.3505 17.6021 21.272 17.0181C21.1976 16.4648 21.1976 15.7679 21.1977 14.9321L21.1977 13.8272C21.1977 13.2465 21.1976 12.7619 21.2351 12.3682C21.2742 11.9567 21.3591 11.5733 21.5746 11.2215C21.7856 10.8773 22.075 10.5879 22.4192 10.377C22.7709 10.1614 23.1544 10.0765 23.5659 10.0374C23.9595 9.99998 24.4442 9.99999 25.0249 10ZM25.8488 15.814C25.3694 15.814 25.1297 15.814 24.9604 15.6939C24.9007 15.6515 24.8485 15.5993 24.8061 15.5396C24.686 15.3703 24.686 15.1306 24.686 14.6512C24.686 14.1717 24.686 13.932 24.8061 13.7627C24.8485 13.703 24.9007 13.6509 24.9604 13.6085C25.1297 13.4884 25.3694 13.4884 25.8488 13.4884C26.3283 13.4884 26.568 13.4884 26.7373 13.6085C26.797 13.6509 26.8491 13.703 26.8915 13.7627C27.0116 13.932 27.0116 14.1717 27.0116 14.6512C27.0116 15.1306 27.0116 15.3703 26.8915 15.5396C26.8491 15.5993 26.797 15.6515 26.7373 15.6939C26.568 15.814 26.3283 15.814 25.8488 15.814Z" fill="white"/>
<path fill-rule="evenodd" clip-rule="evenodd" d="M18.5808 10.377C18.2291 10.1614 17.8456 10.0765 17.4341 10.0374C17.0405 9.99998 16.5558 9.99999 15.9751 10H15.9068C15.0231 9.99999 14.3103 9.99999 13.7365 10.0545C13.1448 10.1108 12.6293 10.23 12.1657 10.514C11.6963 10.8017 11.3017 11.1963 11.014 11.6657C10.73 12.1293 10.6108 12.6448 10.5545 13.2365C10.5 13.8103 10.5 14.523 10.5 15.4068V15.4751C10.5 16.0558 10.5 16.5405 10.5374 16.9341C10.5765 17.3456 10.6614 17.7291 10.877 18.0808C11.0879 18.425 11.3773 18.7144 11.7215 18.9254C12.0733 19.1409 12.4567 19.2258 12.8682 19.2649C13.2618 19.3024 13.7464 19.3023 14.3271 19.3023L15.4321 19.3023C16.2679 19.3024 16.9648 19.3024 17.5181 19.228C18.1021 19.1495 18.6294 18.9768 19.0531 18.5531C19.4768 18.1294 19.6495 17.6021 19.728 17.0181C19.8024 16.4648 19.8024 15.7679 19.8023 14.9321L19.8023 13.8273C19.8023 13.2466 19.8024 12.7618 19.7649 12.3682C19.7258 11.9567 19.6409 11.5733 19.4254 11.2215C19.2144 10.8773 18.925 10.5879 18.5808 10.377ZM14.2627 15.6939C14.432 15.814 14.6717 15.814 15.1512 15.814C15.6306 15.814 15.8703 15.814 16.0396 15.6939C16.0993 15.6515 16.1515 15.5993 16.1939 15.5396C16.314 15.3703 16.314 15.1306 16.314 14.6512C16.314 14.1717 16.314 13.932 16.1939 13.7627C16.1515 13.703 16.0993 13.6509 16.0396 13.6085C15.8703 13.4884 15.6306 13.4884 15.1512 13.4884C14.6717 13.4884 14.432 13.4884 14.2627 13.6085C14.203 13.6509 14.1509 13.703 14.1085 13.7627C13.9884 13.932 13.9884 14.1717 13.9884 14.6512C13.9884 15.1306 13.9884 15.3703 14.1085 15.5396C14.1509 15.5993 14.203 15.6515 14.2627 15.6939Z" fill="white"/>
<path fill-rule="evenodd" clip-rule="evenodd" d="M17.5181 20.772C18.1021 20.8505 18.6294 21.0232 19.0531 21.4469C19.4768 21.8706 19.6495 22.3979 19.728 22.9819C19.8024 23.5352 19.8024 24.2321 19.8023 25.0679L19.8023 26.1728C19.8023 26.7535 19.8024 27.2382 19.7649 27.6318C19.7258 28.0433 19.6409 28.4267 19.4254 28.7785C19.2144 29.1227 18.925 29.4121 18.5808 29.623C18.2291 29.8386 17.8456 29.9235 17.4341 29.9626C17.0405 30 16.5558 30 15.9751 30H15.9068C15.023 30 14.3103 30 13.7365 29.9455C13.1448 29.8892 12.6293 29.77 12.1657 29.486C11.6963 29.1983 11.3017 28.8037 11.014 28.3343C10.73 27.8707 10.6108 27.3552 10.5545 26.7635C10.5 26.1897 10.5 25.477 10.5 24.5932V24.5249C10.5 23.9442 10.5 23.4595 10.5374 23.0659C10.5765 22.6544 10.6614 22.2709 10.877 21.9192C11.0879 21.575 11.3773 21.2856 11.7215 21.0746C12.0733 20.8591 12.4567 20.7742 12.8682 20.7351C13.2618 20.6976 13.7465 20.6977 14.3272 20.6977L15.4321 20.6977C16.2679 20.6976 16.9648 20.6976 17.5181 20.772ZM15.1512 26.5116C14.6717 26.5116 14.432 26.5116 14.2627 26.3915C14.203 26.3491 14.1509 26.297 14.1085 26.2373C13.9884 26.068 13.9884 25.8283 13.9884 25.3488C13.9884 24.8694 13.9884 24.6297 14.1085 24.4604C14.1509 24.4007 14.203 24.3485 14.2627 24.3061C14.432 24.186 14.6717 24.186 15.1512 24.186C15.6306 24.186 15.8703 24.186 16.0396 24.3061C16.0993 24.3485 16.1515 24.4007 16.1939 24.4604C16.314 24.6297 16.314 24.8694 16.314 25.3488C16.314 25.8283 16.314 26.068 16.1939 26.2373C16.1515 26.297 16.0993 26.3491 16.0396 26.3915C15.8703 26.5116 15.6306 26.5116 15.1512 26.5116Z" fill="white"/>
<path d="M21.1977 24.6155V24.6512H22.593C22.593 23.9834 22.5939 23.5351 22.6286 23.1933C22.6622 22.8632 22.7216 22.7107 22.789 22.6098C22.8738 22.4828 22.9828 22.3738 23.1098 22.289C23.2107 22.2216 23.3632 22.1622 23.6933 22.1286C24.0351 22.0939 24.4834 22.093 25.1512 22.093H27.0116V20.6977H25.1155C24.4926 20.6977 23.9729 20.6976 23.5521 20.7404C23.1117 20.7853 22.703 20.8827 22.3346 21.1288C22.0553 21.3154 21.8154 21.5553 21.6288 21.8346C21.3827 22.203 21.2853 22.6117 21.2404 23.0521C21.1976 23.4729 21.1977 23.9926 21.1977 24.6155Z" fill="white"/>
<path d="M30.5 26.5351V26.5116H29.1046C29.1046 26.9546 29.1043 27.2519 29.0886 27.4821C29.0733 27.706 29.0459 27.8151 29.0161 27.8868C28.8981 28.1718 28.6718 28.3981 28.3868 28.5161C28.3151 28.5459 28.206 28.5733 27.9821 28.5886C27.7519 28.6043 27.4546 28.6046 27.0116 28.6046H25.1512V30H27.0351C27.4486 30 27.7937 30 28.0771 29.9807C28.3721 29.9606 28.6507 29.9172 28.9208 29.8053C29.5476 29.5456 30.0456 29.0476 30.3053 28.4208C30.4172 28.1507 30.4606 27.8721 30.4807 27.5771C30.5 27.2937 30.5 26.9486 30.5 26.5351Z" fill="white"/>
<path d="M22.593 29.3023C22.593 29.6876 22.2807 30 21.8953 30C21.51 30 21.1977 29.6876 21.1977 29.3023V26.5116H22.593V29.3023Z" fill="white"/>
<path d="M29.8023 20.6977C29.417 20.6977 29.1046 21.01 29.1046 21.3953V24.6512H30.5V21.3953C30.5 21.01 30.1876 20.6977 29.8023 20.6977Z" fill="white"/>
<path d="M24.5761 24.6173C24.5 24.8011 24.5 25.0341 24.5 25.5C24.5 25.9659 24.5 26.1989 24.5761 26.3827C24.6776 26.6277 24.8723 26.8224 25.1173 26.9239C25.3011 27 25.5341 27 26 27C26.4659 27 26.6989 27 26.8827 26.9239C27.1277 26.8224 27.3224 26.6277 27.4239 26.3827C27.5 26.1989 27.5 25.9659 27.5 25.5C27.5 25.0341 27.5 24.8011 27.4239 24.6173C27.3224 24.3723 27.1277 24.1776 26.8827 24.0761C26.6989 24 26.4659 24 26 24C25.5341 24 25.3011 24 25.1173 24.0761C24.8723 24.1776 24.6776 24.3723 24.5761 24.6173Z" fill="white"/>
</svg>
