<svg xmlns="http://www.w3.org/2000/svg" width="32" height="32" viewBox="0 0 32 32" fill="none">
<ellipse cx="16.0001" cy="16" rx="15.8545" ry="16" fill="#1890FF"/>
<path d="M20.7285 16.85L17.6518 19.3333H13.523V18.5H16.8797C17.2092 18.5 17.4065 18.1292 17.2232 17.8525L16.4899 16.7425C16.1844 16.2783 15.6691 16 15.1167 16H13.523H8.56843C8.11179 16 7.74268 16.3725 7.74268 16.8333V21.8333C7.74268 22.7533 8.48255 23.5 9.39419 23.5H17.3537C18.0679 23.5 18.7475 23.1892 19.2182 22.6467L24.2578 16.8333L23.0588 16.43C22.262 16.1617 21.385 16.32 20.7285 16.85Z" fill="#E5F3FF"/>
<path fill-rule="evenodd" clip-rule="evenodd" d="M14.8028 8.5H22.9778C23.0983 8.5 23.2138 8.5439 23.2989 8.62204C23.3841 8.70018 23.432 8.80616 23.432 8.91667V14.75C23.432 14.8605 23.3841 14.9665 23.2989 15.0446C23.2138 15.1228 23.0983 15.1667 22.9778 15.1667H14.8028C14.6823 15.1667 14.5668 15.1228 14.4817 15.0446C14.3965 14.9665 14.3486 14.8605 14.3486 14.75V8.91667C14.3486 8.80616 14.3965 8.70018 14.4817 8.62204C14.5668 8.5439 14.6823 8.5 14.8028 8.5ZM21.0427 13.0903C21.2472 12.908 21.5244 12.8055 21.8135 12.8055V10.8611C21.5244 10.8611 21.2472 10.7587 21.0427 10.5763C20.8383 10.394 20.7235 10.1467 20.7235 9.88888H17.0901C17.0901 10.1467 16.9753 10.394 16.7709 10.5763C16.5665 10.7587 16.2892 10.8611 16.0001 10.8611V12.8055C16.2892 12.8055 16.5665 12.908 16.7709 13.0903C16.9753 13.2726 17.0901 13.5199 17.0901 13.7778H20.7235C20.7235 13.5199 20.8383 13.2726 21.0427 13.0903Z" fill="#E5F3FF"/>
</svg>