<svg width="41" height="40" viewBox="0 0 41 40" fill="none" xmlns="http://www.w3.org/2000/svg">
<rect x="0.5" width="40" height="40" rx="20" fill="#A36E48"/>
<path fill-rule="evenodd" clip-rule="evenodd" d="M10.5 13.75C10.5 13.3358 10.8358 13 11.25 13H29.25C29.6642 13 30 13.3358 30 13.75C30 14.1642 29.6642 14.5 29.25 14.5H11.25C10.8358 14.5 10.5 14.1642 10.5 13.75ZM10.5 17.75C10.5 17.3358 10.8358 17 11.25 17H29.25C29.6642 17 30 17.3358 30 17.75C30 18.1642 29.6642 18.5 29.25 18.5H11.25C10.8358 18.5 10.5 18.1642 10.5 17.75ZM28.7113 20.6586C29.0379 20.9134 29.0961 21.3847 28.8414 21.7113L24.9414 26.7113C24.8022 26.8897 24.5899 26.9958 24.3636 26.9999C24.1373 27.004 23.9213 26.9057 23.7757 26.7324L21.6757 24.2324C21.4093 23.9152 21.4504 23.4421 21.7676 23.1757C22.0848 22.9093 22.5579 22.9504 22.8243 23.2676L24.3284 25.0582L27.6586 20.7887C27.9134 20.4621 28.3847 20.4039 28.7113 20.6586ZM10.5 21.75C10.5 21.3358 10.8358 21 11.25 21H18.25C18.6642 21 19 21.3358 19 21.75C19 22.1642 18.6642 22.5 18.25 22.5H11.25C10.8358 22.5 10.5 22.1642 10.5 21.75ZM10.5 25.75C10.5 25.3358 10.8358 25 11.25 25H18.25C18.6642 25 19 25.3358 19 25.75C19 26.1642 18.6642 26.5 18.25 26.5H11.25C10.8358 26.5 10.5 26.1642 10.5 25.75Z" fill="white"/>
</svg>
