<svg width="32" height="32" viewBox="0 0 32 32" fill="none" xmlns="http://www.w3.org/2000/svg">
<circle cx="16" cy="16" r="16" fill="#D8B356"/>
<path d="M6.90077 21.9664V20.4096H25.0992V21.9664H6.90077ZM7.79958 16.198L6.84494 15.6703L7.72957 14.1605H6V13.0825H7.72957L6.84494 11.5728L7.79958 11.045L8.64455 12.5377L9.48949 11.045L10.4387 11.5728L9.55412 13.0825H11.2837V14.1605H9.55412L10.4387 15.6703L9.48949 16.198L8.64455 14.7054L7.79958 16.198ZM15.155 16.198L14.2004 15.6252L15.0904 14.1155H13.3555V13.0375H15.0904L14.2004 11.5277L15.155 11L16 12.4926L16.845 11L17.7996 11.5277L16.915 13.0375H18.6445V14.1155H16.915L17.7996 15.6252L16.845 16.198L16 14.7054L15.155 16.198ZM22.5159 16.198L21.5613 15.6252L22.4513 14.1155H20.7163V13.0375H22.4513L21.5613 11.5277L22.5159 11L23.3555 12.4926L24.2004 11L25.1604 11.5277L24.2704 13.0375H26V14.1155H24.2704L25.1604 15.6252L24.2004 16.198L23.3555 14.7054L22.5159 16.198Z" fill="white"/>
</svg>
