<svg width="110" height="60" viewBox="0 0 110 60" fill="none" xmlns="http://www.w3.org/2000/svg">
<rect width="110" height="60" fill="#FFC20E"/>
<path d="M52.3334 30.684L42.3407 30.6666L42.3414 38.0013C42.3414 38.6673 42.8327 39.2306 43.492 39.322L52.3334 40.5453V30.684Z" fill="white"/>
<path d="M53.6666 30.6866V40.73L66.148 42.4566C66.9493 42.5673 67.664 41.9453 67.664 41.136L67.6666 30.7106L53.6666 30.6866Z" fill="white"/>
<path d="M52.3334 19.504L43.4814 20.7574C42.8234 20.8507 42.3341 21.414 42.3347 22.0787L42.3427 29.3334H52.3334V19.504Z" fill="white"/>
<path d="M53.6666 19.3153V29.3333H67.6633V18.8686C67.6633 18.058 66.946 17.4346 66.1433 17.5486L53.6666 19.3153Z" fill="white"/>
</svg>